<?xml version="1.0" encoding="utf-8"?>
<svg xmlns="http://www.w3.org/2000/svg" viewBox="0 0 48 48" width="16" height="16">
  <path d="M24 3.9980469C12.972292 3.9980469 4 12.970339 4 23.998047C4 27.273363 4.8627078 30.334853 6.2617188 33.064453L4.09375 40.826172C3.5887973 42.629575 5.3719261 44.41261 7.1757812 43.908203L14.943359 41.740234C17.670736 43.136312 20.727751 43.998047 24 43.998047C35.027708 43.998047 44 35.025755 44 23.998047C44 12.970339 35.027708 3.9980469 24 3.9980469 z M 24 6.9980469C33.406292 6.9980469 41 14.591755 41 23.998047C41 33.404339 33.406292 40.998047 24 40.998047C20.998416 40.998047 18.190601 40.217527 15.742188 38.853516 A 1.50015 1.50015 0 0 0 14.609375 38.71875L7.2226562 40.779297L9.2851562 33.396484 A 1.50015 1.50015 0 0 0 9.1503906 32.261719C7.7836522 29.811523 7 27.002565 7 23.998047C7 14.591755 14.593708 6.9980469 24 6.9980469 z M 17.240234 15C16.921234 15 16.405797 15.119656 15.966797 15.597656C15.528797 16.073656 14.294922 17.228125 14.294922 19.578125C14.294922 21.928125 16.005141 24.197578 16.244141 24.517578C16.482141 24.834578 19.547344 29.812562 24.402344 31.726562C28.436344 33.316563 29.256812 32.999922 30.132812 32.919922C31.008813 32.841922 32.959422 31.766391 33.357422 30.650391C33.755422 29.534391 33.755672 28.579813 33.638672 28.382812C33.519672 28.183812 33.200656 28.063219 32.722656 27.824219C32.245656 27.585219 29.898937 26.430484 29.460938 26.271484C29.022938 26.112484 28.702766 26.031766 28.384766 26.509766C28.066766 26.987766 27.152047 28.062859 26.873047 28.380859C26.594047 28.700859 26.315891 28.740953 25.837891 28.501953C25.358891 28.260953 23.822094 27.757859 21.996094 26.130859C20.576094 24.865859 19.620797 23.302219 19.341797 22.824219C19.063797 22.348219 19.311781 22.086609 19.550781 21.849609C19.765781 21.635609 20.028578 21.292672 20.267578 21.013672C20.504578 20.734672 20.583188 20.53675 20.742188 20.21875C20.901188 19.90175 20.822125 19.621813 20.703125 19.382812C20.584125 19.143813 19.655469 16.780938 19.230469 15.835938C18.873469 15.041938 18.49725 15.024719 18.15625 15.011719C17.87825 15.000719 17.558234 15 17.240234 15 z" fill="#5B5B5B" />
</svg>